cyclingleg_Default_states
version=1
nRows=7
nColumns=49
inDegrees=yes

# SIMM Motion File Header:
name cyclingleg_Default_states
datacolumns 49
datarows 7
otherdata 1
range 0.00000000 0.00002836
endheader
time	/jointset/bb/crank_angle/value	/jointset/bb/crank_angle/speed	/jointset/spindle/pedal_angle_r/value	/jointset/spindle/pedal_angle_r/speed	/jointset/ground_pelvis/pelvis_tilt/value	/jointset/ground_pelvis/pelvis_tilt/speed	/jointset/ground_pelvis/pelvis_list/value	/jointset/ground_pelvis/pelvis_list/speed	/jointset/ground_pelvis/pelvis_rotation/value	/jointset/ground_pelvis/pelvis_rotation/speed	/jointset/ground_pelvis/pelvis_tx/value	/jointset/ground_pelvis/pelvis_tx/speed	/jointset/ground_pelvis/pelvis_ty/value	/jointset/ground_pelvis/pelvis_ty/speed	/jointset/ground_pelvis/pelvis_tz/value	/jointset/ground_pelvis/pelvis_tz/speed	/jointset/hip_r/hip_angle_r/value	/jointset/hip_r/hip_angle_r/speed	/jointset/hip_r/hip_adduction_r/value	/jointset/hip_r/hip_adduction_r/speed	/jointset/hip_r/hip_rotation_r/value	/jointset/hip_r/hip_rotation_r/speed	/jointset/knee_r/knee_angle_r/value	/jointset/knee_r/knee_angle_r/speed	/jointset/knee_r/tib_tx_r/value	/jointset/knee_r/tib_tx_r/speed	/jointset/knee_r/tib_ty_r/value	/jointset/knee_r/tib_ty_r/speed	/jointset/tib_pat_r/pat_angle_r/value	/jointset/tib_pat_r/pat_angle_r/speed	/jointset/tib_pat_r/pat_tx_r/value	/jointset/tib_pat_r/pat_tx_r/speed	/jointset/tib_pat_r/pat_ty_r/value	/jointset/tib_pat_r/pat_ty_r/speed	/jointset/ankle_r/ankle_angle_r/value	/jointset/ankle_r/ankle_angle_r/speed	/jointset/subtalar_r/subtalar_angle_r/value	/jointset/subtalar_r/subtalar_angle_r/speed	/jointset/mtp_r/mtp_angle_r/value	/jointset/mtp_r/mtp_angle_r/speed	/forceset/bifemlh_r/activation	/forceset/bifemlh_r/fiber_length	/forceset/bifemsh_r/activation	/forceset/bifemsh_r/fiber_length	/forceset/glut_max2_r/activation	/forceset/glut_max2_r/fiber_length	/forceset/vas_int_r/activation	/forceset/vas_int_r/fiber_length
      0.00000000	    -10.13488126	      0.00000000	      4.90699092	      0.00000000	     -0.00000000	      0.00000000	     -0.00000000	      0.00000000	     -0.00000000	      0.00000000	     -0.10000000	      0.00000000	     -0.05000000	      0.00000000	      0.00000000	      0.00000000	     83.11760167	      0.00000000	      4.07985323	      0.00000000	     -3.79708845	      0.00000000	   -115.32183968	      0.00000000	     -0.00208256	      0.00000000	     -0.49454392	      0.00000000	     17.65061979	      0.00000000	      0.02178359	      0.00000000	     -0.02422901	      0.00000000	     27.66764378	      0.00000000	     -0.00000000	      0.00000000	     -0.00000000	      0.00000000	      0.05000000	      0.10000000	      0.05000000	      0.10000000	      0.05000000	      0.10000000	      0.05000000	      0.10000000
      0.00000170	    -10.13488155	     -0.33058815	      4.90699128	      0.42021401	      0.00000000	      0.00000000	      0.00000000	      0.00000000	      0.00000000	      0.00000000	     -0.10000000	      0.00000000	     -0.05000000	     -0.00000000	      0.00000000	      0.00000000	     83.11760169	      0.02045690	      4.07985323	      0.00100212	     -3.79708844	      0.01029925	   -115.32183959	      0.10000240	     -0.00208256	      0.00003373	     -0.49454392	      0.00003244	     17.65061979	     -0.00006760	      0.02178359	      0.00004894	     -0.02422901	      0.00000790	     27.66764375	     -0.03175669	     -0.00000000	     -0.00000000	     -0.00000000	     -0.00000000	      0.04999927	      0.10061465	      0.04999927	      0.11065325	      0.04999927	      0.10372222	      0.05028123	      0.10272747
      0.00000341	    -10.13488238	     -0.65212788	      4.90699235	      0.82892648	      0.00000000	      0.00000000	      0.00000000	      0.00000000	      0.00000000	      0.00000000	     -0.10000000	      0.00000000	     -0.05000000	     -0.00000000	      0.00000000	      0.00000000	     83.11760174	      0.04035388	      4.07985323	      0.00197681	     -3.79708842	      0.02031661	   -115.32183934	      0.19726766	     -0.00208256	      0.00006654	     -0.49454392	      0.00006398	     17.65061979	     -0.00013335	      0.02178359	      0.00009655	     -0.02422901	      0.00001559	     27.66764367	     -0.06264418	     -0.00000000	     -0.00000000	     -0.00000000	     -0.00000000	      0.04999853	      0.10121645	      0.04999853	      0.11749651	      0.04999853	      0.10708488	      0.05056218	      0.10527977
      0.00000614	    -10.13488484	     -1.14547332	      4.90699548	      1.45602295	      0.00000000	      0.00000000	      0.00000000	      0.00000000	      0.00000000	      0.00000000	     -0.10000000	     -0.00000000	     -0.05000000	     -0.00000000	      0.00000000	      0.00000000	     83.11760189	      0.07088224	      4.07985324	      0.00347230	     -3.79708834	      0.03568646	   -115.32183859	      0.34650390	     -0.00208256	      0.00011688	     -0.49454392	      0.00011239	     17.65061979	     -0.00023423	      0.02178359	      0.00016959	     -0.02422901	      0.00002738	     27.66764343	     -0.11003554	     -0.00000000	      0.00000000	     -0.00000000	     -0.00000000	      0.04999735	      0.10215562	      0.04999735	      0.12485537	      0.04999735	      0.11185925	      0.05101206	      0.10905457
      0.00001025	    -10.13489099	     -1.83527343	      4.90700329	      2.33283497	      0.00000000	      0.00000000	      0.00000000	      0.00000000	      0.00000000	      0.00000000	     -0.10000000	     -0.00000000	     -0.05000000	     -0.00000000	      0.00000000	      0.00000000	     83.11760227	      0.11356718	      4.07985325	      0.00556330	     -3.79708815	      0.05717674	   -115.32183673	      0.55516746	     -0.00208256	      0.00018726	     -0.49454391	      0.00018007	     17.65061979	     -0.00037528	      0.02178359	      0.00027171	     -0.02422901	      0.00004386	     27.66764284	     -0.17629857	     -0.00000000	     -0.00000000	     -0.00000000	      0.00000000	      0.04999558	      0.10351270	      0.04999558	      0.13169520	      0.04999558	      0.11791486	      0.05168799	      0.11411731
      0.00001667	    -10.13490593	     -2.79239441	      4.90702228	      3.54944123	      0.00000000	      0.00000000	      0.00000000	      0.00000000	      0.00000000	      0.00000000	     -0.10000000	      0.00000000	     -0.05000000	     -0.00000000	      0.00000000	      0.00000000	     83.11760319	      0.17279372	      4.07985330	      0.00846464	     -3.79708769	      0.08699524	   -115.32183222	      0.84469546	     -0.00208256	      0.00028493	     -0.49454391	      0.00027398	     17.65061979	     -0.00057100	      0.02178359	      0.00041341	     -0.02422901	      0.00006674	     27.66764141	     -0.26824083	      0.00000000	      0.00000000	      0.00000000	      0.00000000	      0.04999281	      0.10550643	      0.04999281	      0.13752693	      0.04999281	      0.12538319	      0.05274072	      0.12084574
      0.00002836	    -10.13494722	     -4.20816878	      4.90707476	      5.34904628	      0.00000000	     -0.00000000	      0.00000000	      0.00000000	      0.00000000	      0.00000000	     -0.10000000	     -0.00000000	     -0.05000000	      0.00000000	      0.00000000	      0.00000000	     83.11760575	      0.26040055	      4.07985343	      0.01275632	     -3.79708640	      0.13110289	   -115.32181973	      1.27296664	     -0.00208256	      0.00042939	     -0.49454391	      0.00041289	     17.65061978	     -0.00086051	      0.02178359	      0.00062302	     -0.02422901	      0.00010057	     27.66763744	     -0.40424209	      0.00000000	     -0.00000000	      0.00000000	      0.00000000	      0.04998777	      0.10878419	      0.04998777	      0.14193165	      0.04998777	      0.13488595	      0.05464626	      0.13039995
